<svg xmlns="http://www.w3.org/2000/svg" viewBox="0 0 2468.5 780.0">
<svg x="40" y="40.0" width="525.2" height="700" viewBox="0 0 616 821">
<path fill="#D6A22B" fill-rule="evenodd" d="M 468 539 L 468 570 L 467 571 L 411 571 L 411 581 L 412 582 L 411 583 L 435 583 L 436 584 L 436 602 L 467 602 L 468 603 L 468 634 L 499 634 L 500 635 L 500 730 L 499 731 L 436 731 L 436 762 L 531 762 L 531 731 L 532 730 L 563 730 L 563 603 L 532 603 L 531 602 L 531 571 L 513 571 L 512 570 L 512 539 Z M 103 539 L 103 570 L 102 571 L 84 571 L 84 602 L 83 603 L 52 603 L 52 730 L 83 730 L 84 731 L 84 762 L 179 762 L 179 731 L 116 731 L 115 730 L 115 635 L 116 634 L 147 634 L 147 603 L 148 602 L 179 602 L 179 584 L 180 583 L 204 583 L 204 571 L 148 571 L 147 570 L 147 539 Z M 512 387 L 513 386 L 563 386 L 564 387 L 564 410 L 563 411 L 513 411 L 512 410 Z M 51 387 L 52 386 L 102 386 L 103 387 L 103 410 L 102 411 L 52 411 L 51 410 Z M 390 283 L 391 282 L 486 282 L 487 283 L 487 303 L 488 304 L 499 304 L 500 305 L 500 327 L 499 328 L 468 328 L 467 327 L 467 309 L 412 309 L 411 310 L 411 327 L 410 328 L 372 328 L 371 327 L 371 305 L 372 304 L 389 304 L 390 303 Z M 179 248 L 180 247 L 211 247 L 212 248 L 212 346 L 256 346 L 256 328 L 257 327 L 281 327 L 281 296 L 282 295 L 291 295 L 292 294 L 292 257 L 293 256 L 297 256 L 298 257 L 299 256 L 303 256 L 304 257 L 307 257 L 308 256 L 315 256 L 316 257 L 317 256 L 318 257 L 319 256 L 320 257 L 322 257 L 323 258 L 323 294 L 324 295 L 333 295 L 334 296 L 334 327 L 358 327 L 359 328 L 359 346 L 409 346 L 410 347 L 410 367 L 411 368 L 410 369 L 410 370 L 411 371 L 411 378 L 435 378 L 436 379 L 436 384 L 449 384 L 450 385 L 451 385 L 452 384 L 453 384 L 454 385 L 467 385 L 468 386 L 468 410 L 499 410 L 500 411 L 500 474 L 499 475 L 436 475 L 436 506 L 435 507 L 180 507 L 179 506 L 179 475 L 116 475 L 115 474 L 115 411 L 116 410 L 147 410 L 147 386 L 148 385 L 149 385 L 150 384 L 155 384 L 156 385 L 172 385 L 173 384 L 179 384 L 179 379 L 180 378 L 204 378 L 205 377 L 205 351 L 204 350 L 204 347 L 116 347 L 115 346 L 115 258 L 116 257 L 128 257 L 128 249 L 129 248 Z M 512 78 L 513 77 L 533 77 L 534 78 L 534 205 L 533 206 L 513 206 L 512 205 L 512 181 L 511 182 L 510 181 L 487 181 L 486 180 L 486 155 L 462 155 L 461 154 L 461 131 L 460 130 L 462 128 L 485 128 L 486 127 L 486 104 L 487 103 L 511 103 L 512 102 Z M 81 78 L 82 77 L 102 77 L 103 78 L 103 102 L 104 103 L 128 103 L 129 104 L 129 128 L 153 128 L 154 129 L 154 133 L 155 134 L 155 146 L 154 147 L 155 148 L 154 149 L 155 150 L 155 154 L 154 155 L 129 155 L 129 180 L 128 181 L 103 181 L 103 203 L 104 204 L 104 205 L 103 206 L 82 206 L 81 205 Z M 52 27 L 52 205 L 73 205 L 74 206 L 74 257 L 73 258 L 54 258 L 53 257 L 52 258 L 52 308 L 51 309 L 28 309 L 27 310 L 27 324 L 28 325 L 27 326 L 83 326 L 84 327 L 84 346 L 102 346 L 103 347 L 103 368 L 102 369 L 52 369 L 52 385 L 51 386 L 27 386 L 27 410 L 51 410 L 52 411 L 52 442 L 83 442 L 84 443 L 84 474 L 115 474 L 116 475 L 116 506 L 179 506 L 180 507 L 180 538 L 435 538 L 435 507 L 436 506 L 499 506 L 499 475 L 500 474 L 531 474 L 531 443 L 532 442 L 563 442 L 563 411 L 564 410 L 588 410 L 588 387 L 587 386 L 564 386 L 563 385 L 563 369 L 513 369 L 512 368 L 512 347 L 513 346 L 531 346 L 531 327 L 532 326 L 588 326 L 588 310 L 587 309 L 564 309 L 563 308 L 563 258 L 542 258 L 541 257 L 541 206 L 542 205 L 563 205 L 563 27 L 534 27 L 534 52 L 533 53 L 489 53 L 488 54 L 486 52 L 462 52 L 461 53 L 462 52 L 486 52 L 487 53 L 487 77 L 486 78 L 462 78 L 461 77 L 461 76 L 461 77 L 463 79 L 462 80 L 462 103 L 461 104 L 436 104 L 436 129 L 435 130 L 411 130 L 411 146 L 410 147 L 411 148 L 411 153 L 409 155 L 385 155 L 385 186 L 384 187 L 359 187 L 358 186 L 358 131 L 357 130 L 335 130 L 334 131 L 334 205 L 333 206 L 284 206 L 283 207 L 281 205 L 281 131 L 280 130 L 257 130 L 257 186 L 256 187 L 231 187 L 230 186 L 230 155 L 206 155 L 205 154 L 205 141 L 204 140 L 204 130 L 180 130 L 179 129 L 179 104 L 154 104 L 153 103 L 153 80 L 152 79 L 153 78 L 129 78 L 128 77 L 128 53 L 129 52 L 134 52 L 129 52 L 127 54 L 126 53 L 82 53 L 81 52 L 81 27 Z"/>
<path fill="#F5EAC2" fill-rule="evenodd" d="M 283 770 L 282 771 L 282 774 L 283 775 L 283 778 L 282 779 L 282 794 L 287 794 L 288 795 L 328 795 L 329 794 L 333 794 L 333 793 L 332 792 L 332 770 L 331 771 L 313 771 L 312 772 L 303 772 L 302 771 L 284 771 Z M 282 720 L 283 721 L 283 739 L 282 740 L 282 746 L 289 746 L 290 747 L 325 747 L 326 746 L 333 746 L 333 742 L 332 741 L 332 720 L 324 720 L 323 721 L 292 721 L 291 720 Z M 436 667 L 436 698 L 435 699 L 410 699 L 410 713 L 411 714 L 411 730 L 499 730 L 499 667 Z M 282 667 L 282 695 L 286 695 L 287 696 L 328 696 L 329 695 L 333 695 L 333 678 L 332 677 L 332 667 Z M 116 667 L 116 730 L 204 730 L 204 715 L 205 714 L 205 707 L 204 706 L 204 699 L 180 699 L 179 698 L 179 667 Z M 283 638 L 282 639 L 282 641 L 283 642 L 283 646 L 282 647 L 283 648 L 290 648 L 291 649 L 324 649 L 325 648 L 332 648 L 332 638 L 316 638 L 315 639 L 308 639 L 307 638 Z M 436 603 L 436 634 L 467 634 L 467 603 Z M 372 603 L 372 615 L 409 615 L 409 604 L 408 603 Z M 206 603 L 206 615 L 243 615 L 243 603 Z M 148 603 L 148 634 L 179 634 L 179 603 Z M 281 590 L 280 591 L 275 591 L 274 592 L 272 592 L 271 593 L 269 593 L 268 594 L 267 594 L 266 595 L 265 595 L 258 602 L 258 603 L 257 604 L 257 614 L 258 615 L 258 616 L 259 617 L 259 618 L 262 621 L 263 621 L 265 623 L 266 623 L 267 624 L 269 624 L 270 625 L 271 625 L 272 626 L 275 626 L 276 627 L 339 627 L 340 626 L 343 626 L 344 625 L 346 625 L 347 624 L 348 624 L 349 623 L 350 623 L 351 622 L 352 622 L 356 618 L 356 617 L 357 616 L 357 615 L 358 614 L 358 604 L 357 603 L 357 602 L 356 601 L 356 600 L 353 597 L 352 597 L 350 595 L 349 595 L 348 594 L 347 594 L 346 593 L 345 593 L 344 592 L 341 592 L 340 591 L 336 591 L 335 590 Z M 291 568 L 290 569 L 283 569 L 282 570 L 282 576 L 283 577 L 283 579 L 333 579 L 333 569 L 325 569 L 324 568 Z M 275 347 L 276 346 L 339 346 L 340 347 L 340 372 L 339 373 L 323 373 L 323 374 L 324 375 L 324 410 L 384 410 L 384 385 L 385 384 L 409 384 L 411 386 L 411 410 L 410 411 L 398 411 L 398 424 L 397 425 L 385 425 L 385 442 L 384 443 L 323 443 L 322 442 L 322 425 L 293 425 L 293 442 L 292 443 L 231 443 L 230 442 L 230 425 L 218 425 L 217 424 L 217 411 L 206 411 L 205 410 L 205 389 L 204 388 L 204 386 L 206 384 L 230 384 L 232 386 L 232 394 L 231 395 L 231 409 L 232 410 L 291 410 L 291 403 L 292 402 L 292 395 L 291 394 L 291 377 L 292 376 L 291 375 L 292 374 L 292 373 L 276 373 L 275 372 Z M 293 257 L 293 294 L 291 296 L 282 296 L 282 327 L 281 328 L 257 328 L 257 346 L 256 347 L 205 347 L 205 350 L 206 351 L 206 377 L 204 379 L 180 379 L 180 384 L 179 385 L 173 385 L 172 386 L 156 386 L 155 385 L 150 385 L 149 386 L 148 386 L 148 410 L 147 411 L 116 411 L 116 474 L 179 474 L 180 475 L 180 506 L 435 506 L 435 475 L 436 474 L 499 474 L 499 411 L 468 411 L 467 410 L 467 386 L 454 386 L 453 385 L 452 385 L 451 386 L 450 386 L 449 385 L 436 385 L 435 384 L 435 379 L 411 379 L 410 378 L 410 371 L 409 370 L 409 369 L 410 368 L 409 367 L 409 347 L 359 347 L 358 346 L 358 328 L 334 328 L 333 327 L 333 296 L 324 296 L 322 294 L 322 258 L 320 258 L 319 257 L 318 258 L 317 257 L 316 258 L 315 257 L 308 257 L 307 258 L 304 258 L 303 257 L 299 257 L 298 258 L 297 257 Z M 129 249 L 129 257 L 128 258 L 116 258 L 116 346 L 147 346 L 147 283 L 148 282 L 179 282 L 179 249 Z M 289 27 L 289 45 L 288 46 L 283 46 L 282 47 L 283 48 L 283 66 L 282 67 L 283 68 L 282 69 L 282 73 L 281 74 L 257 74 L 256 73 L 256 46 L 236 46 L 235 47 L 236 48 L 236 49 L 235 50 L 236 51 L 236 103 L 379 103 L 379 46 L 370 46 L 369 47 L 361 47 L 360 48 L 360 55 L 359 56 L 359 73 L 358 74 L 334 74 L 333 73 L 333 72 L 332 71 L 333 70 L 333 69 L 332 68 L 332 46 L 327 46 L 326 45 L 326 27 Z"/>
<path fill="#AA222E" fill-rule="evenodd" d="M 399 750 L 398 751 L 397 751 L 395 753 L 394 753 L 393 754 L 392 754 L 391 755 L 390 755 L 389 756 L 388 756 L 387 757 L 386 757 L 385 758 L 384 758 L 383 759 L 381 759 L 380 760 L 379 760 L 378 761 L 376 761 L 375 762 L 373 762 L 372 763 L 369 763 L 368 764 L 365 764 L 364 765 L 362 765 L 361 766 L 357 766 L 356 767 L 352 767 L 351 768 L 346 768 L 345 769 L 340 769 L 339 770 L 333 770 L 334 771 L 334 794 L 339 794 L 340 793 L 344 793 L 345 792 L 350 792 L 351 791 L 355 791 L 356 790 L 360 790 L 361 789 L 364 789 L 365 788 L 367 788 L 368 787 L 370 787 L 371 786 L 373 786 L 374 785 L 376 785 L 377 784 L 379 784 L 380 783 L 381 783 L 382 782 L 384 782 L 385 781 L 386 781 L 387 780 L 388 780 L 389 779 L 390 779 L 391 778 L 392 778 L 394 776 L 395 776 L 397 774 L 398 774 L 401 771 L 402 771 L 405 768 L 405 767 L 407 765 L 407 764 L 408 763 L 408 762 L 409 761 L 409 750 Z M 206 750 L 205 751 L 205 754 L 206 755 L 206 761 L 207 762 L 207 763 L 208 764 L 208 765 L 210 767 L 210 768 L 213 771 L 214 771 L 217 774 L 218 774 L 220 776 L 221 776 L 223 778 L 224 778 L 225 779 L 226 779 L 227 780 L 228 780 L 229 781 L 230 781 L 231 782 L 233 782 L 234 783 L 235 783 L 236 784 L 238 784 L 239 785 L 241 785 L 242 786 L 244 786 L 245 787 L 247 787 L 248 788 L 251 788 L 252 789 L 254 789 L 255 790 L 259 790 L 260 791 L 264 791 L 265 792 L 270 792 L 271 793 L 276 793 L 277 794 L 281 794 L 281 770 L 277 770 L 276 769 L 270 769 L 269 768 L 264 768 L 263 767 L 259 767 L 258 766 L 255 766 L 254 765 L 250 765 L 249 764 L 247 764 L 246 763 L 244 763 L 243 762 L 241 762 L 240 761 L 238 761 L 237 760 L 235 760 L 234 759 L 233 759 L 232 758 L 230 758 L 229 757 L 228 757 L 227 756 L 226 756 L 225 755 L 224 755 L 223 754 L 222 754 L 221 753 L 220 753 L 218 751 L 217 751 L 216 750 Z M 382 709 L 381 710 L 379 710 L 378 711 L 376 711 L 375 712 L 373 712 L 372 713 L 369 713 L 368 714 L 365 714 L 364 715 L 361 715 L 360 716 L 356 716 L 355 717 L 351 717 L 350 718 L 345 718 L 344 719 L 337 719 L 336 720 L 335 719 L 334 720 L 334 746 L 336 746 L 337 745 L 343 745 L 344 744 L 349 744 L 350 743 L 354 743 L 355 742 L 359 742 L 360 741 L 363 741 L 364 740 L 366 740 L 367 739 L 370 739 L 371 738 L 373 738 L 374 737 L 376 737 L 377 736 L 379 736 L 380 735 L 382 735 L 383 734 L 384 734 L 384 709 Z M 231 709 L 231 733 L 232 734 L 233 734 L 234 735 L 235 735 L 236 736 L 238 736 L 239 737 L 241 737 L 242 738 L 245 738 L 246 739 L 248 739 L 249 740 L 251 740 L 252 741 L 255 741 L 256 742 L 260 742 L 261 743 L 265 743 L 266 744 L 271 744 L 272 745 L 277 745 L 278 746 L 281 746 L 281 720 L 280 720 L 279 719 L 271 719 L 270 718 L 265 718 L 264 717 L 260 717 L 259 716 L 256 716 L 255 715 L 252 715 L 251 714 L 248 714 L 247 713 L 244 713 L 243 712 L 240 712 L 239 711 L 237 711 L 236 710 L 234 710 L 233 709 Z M 409 639 L 402 646 L 401 646 L 399 648 L 398 648 L 397 649 L 396 649 L 394 651 L 393 651 L 392 652 L 391 652 L 390 653 L 389 653 L 388 654 L 387 654 L 386 655 L 385 655 L 384 656 L 382 656 L 381 657 L 380 657 L 379 658 L 377 658 L 376 659 L 374 659 L 373 660 L 371 660 L 370 661 L 367 661 L 366 662 L 363 662 L 362 663 L 359 663 L 358 664 L 354 664 L 353 665 L 349 665 L 348 666 L 343 666 L 342 667 L 334 667 L 334 695 L 339 695 L 340 694 L 346 694 L 347 693 L 351 693 L 352 692 L 356 692 L 357 691 L 360 691 L 361 690 L 364 690 L 365 689 L 367 689 L 368 688 L 371 688 L 372 687 L 374 687 L 375 686 L 377 686 L 378 685 L 379 685 L 380 684 L 382 684 L 383 683 L 384 683 L 385 682 L 386 682 L 387 681 L 388 681 L 389 680 L 390 680 L 391 679 L 392 679 L 394 677 L 395 677 L 397 675 L 398 675 L 401 672 L 402 672 L 406 668 L 406 667 L 408 665 L 408 663 L 409 662 L 409 658 L 410 657 L 410 655 L 409 654 Z M 206 639 L 206 662 L 207 663 L 207 664 L 208 665 L 208 666 L 217 675 L 218 675 L 220 677 L 221 677 L 223 679 L 224 679 L 225 680 L 226 680 L 227 681 L 228 681 L 229 682 L 230 682 L 231 683 L 233 683 L 234 684 L 235 684 L 236 685 L 238 685 L 239 686 L 241 686 L 242 687 L 244 687 L 245 688 L 247 688 L 248 689 L 251 689 L 252 690 L 254 690 L 255 691 L 259 691 L 260 692 L 263 692 L 264 693 L 269 693 L 270 694 L 275 694 L 276 695 L 281 695 L 281 667 L 274 667 L 273 666 L 267 666 L 266 665 L 262 665 L 261 664 L 258 664 L 257 663 L 253 663 L 252 662 L 249 662 L 248 661 L 245 661 L 244 660 L 242 660 L 241 659 L 239 659 L 238 658 L 236 658 L 235 657 L 234 657 L 233 656 L 231 656 L 230 655 L 229 655 L 228 654 L 227 654 L 226 653 L 225 653 L 224 652 L 223 652 L 222 651 L 221 651 L 219 649 L 218 649 L 216 647 L 215 647 L 213 645 L 212 645 Z M 278 590 L 279 589 L 337 589 L 338 590 L 341 590 L 342 591 L 344 591 L 345 592 L 347 592 L 348 593 L 349 593 L 351 595 L 352 595 L 358 601 L 358 602 L 359 603 L 359 615 L 358 616 L 358 617 L 352 623 L 351 623 L 349 625 L 347 625 L 346 626 L 345 626 L 344 627 L 342 627 L 341 628 L 336 628 L 335 629 L 280 629 L 279 628 L 275 628 L 274 627 L 271 627 L 270 626 L 269 626 L 268 625 L 267 625 L 266 624 L 265 624 L 264 623 L 263 623 L 257 617 L 257 616 L 256 615 L 256 603 L 258 601 L 258 600 L 263 595 L 264 595 L 265 594 L 266 594 L 267 593 L 268 593 L 269 592 L 270 592 L 271 591 L 273 591 L 274 590 Z M 278 569 L 277 570 L 271 570 L 270 571 L 266 571 L 265 572 L 261 572 L 260 573 L 256 573 L 255 574 L 252 574 L 251 575 L 249 575 L 248 576 L 245 576 L 244 577 L 242 577 L 241 578 L 239 578 L 238 579 L 236 579 L 235 580 L 234 580 L 233 581 L 232 581 L 231 582 L 229 582 L 228 583 L 227 583 L 226 584 L 225 584 L 224 585 L 223 585 L 222 586 L 221 586 L 219 588 L 218 588 L 215 591 L 214 591 L 209 596 L 209 597 L 207 599 L 207 601 L 206 602 L 243 602 L 244 603 L 244 615 L 243 616 L 207 616 L 207 618 L 209 620 L 209 621 L 214 626 L 215 626 L 218 629 L 219 629 L 221 631 L 222 631 L 223 632 L 224 632 L 225 633 L 226 633 L 227 634 L 228 634 L 229 635 L 230 635 L 231 636 L 232 636 L 233 637 L 235 637 L 236 638 L 238 638 L 239 639 L 241 639 L 242 640 L 244 640 L 245 641 L 248 641 L 249 642 L 251 642 L 252 643 L 256 643 L 257 644 L 260 644 L 261 645 L 264 645 L 265 646 L 270 646 L 271 647 L 276 647 L 277 648 L 281 648 L 281 638 L 282 637 L 333 637 L 334 638 L 334 648 L 338 648 L 339 647 L 345 647 L 346 646 L 350 646 L 351 645 L 355 645 L 356 644 L 359 644 L 360 643 L 363 643 L 364 642 L 367 642 L 368 641 L 370 641 L 371 640 L 374 640 L 375 639 L 377 639 L 378 638 L 380 638 L 381 637 L 382 637 L 383 636 L 385 636 L 386 635 L 387 635 L 388 634 L 389 634 L 390 633 L 391 633 L 393 631 L 394 631 L 395 630 L 396 630 L 399 627 L 400 627 L 407 620 L 407 619 L 408 618 L 408 617 L 409 616 L 372 616 L 371 615 L 371 603 L 372 602 L 408 602 L 409 603 L 409 601 L 408 600 L 408 599 L 407 598 L 407 597 L 401 591 L 400 591 L 397 588 L 396 588 L 395 587 L 394 587 L 392 585 L 391 585 L 390 584 L 389 584 L 388 583 L 387 583 L 386 582 L 384 582 L 383 581 L 382 581 L 381 580 L 380 580 L 379 579 L 377 579 L 376 578 L 374 578 L 373 577 L 371 577 L 370 576 L 367 576 L 366 575 L 364 575 L 363 574 L 360 574 L 359 573 L 355 573 L 354 572 L 350 572 L 349 571 L 345 571 L 344 570 L 338 570 L 337 569 L 334 569 L 334 579 L 332 581 L 282 581 L 281 580 L 281 569 Z"/>
<path fill="#050A21" fill-rule="evenodd" d="M 206 749 L 216 749 L 217 750 L 218 750 L 220 752 L 221 752 L 222 753 L 223 753 L 224 754 L 225 754 L 226 755 L 227 755 L 228 756 L 229 756 L 230 757 L 232 757 L 233 758 L 234 758 L 235 759 L 237 759 L 238 760 L 240 760 L 241 761 L 243 761 L 244 762 L 246 762 L 247 763 L 249 763 L 250 764 L 254 764 L 255 765 L 258 765 L 259 766 L 263 766 L 264 767 L 269 767 L 270 768 L 276 768 L 277 769 L 289 769 L 290 770 L 327 770 L 328 769 L 339 769 L 340 768 L 345 768 L 346 767 L 351 767 L 352 766 L 356 766 L 357 765 L 361 765 L 362 764 L 364 764 L 365 763 L 368 763 L 369 762 L 372 762 L 373 761 L 375 761 L 376 760 L 378 760 L 379 759 L 380 759 L 381 758 L 383 758 L 384 757 L 385 757 L 386 756 L 387 756 L 388 755 L 389 755 L 390 754 L 391 754 L 392 753 L 393 753 L 394 752 L 395 752 L 397 750 L 398 750 L 399 749 L 409 749 L 410 750 L 410 761 L 409 762 L 409 763 L 408 764 L 408 765 L 406 767 L 406 768 L 402 772 L 401 772 L 398 775 L 397 775 L 395 777 L 394 777 L 392 779 L 391 779 L 390 780 L 389 780 L 388 781 L 387 781 L 386 782 L 385 782 L 384 783 L 382 783 L 381 784 L 380 784 L 379 785 L 377 785 L 376 786 L 374 786 L 373 787 L 371 787 L 370 788 L 368 788 L 367 789 L 365 789 L 364 790 L 361 790 L 360 791 L 356 791 L 355 792 L 351 792 L 350 793 L 345 793 L 344 794 L 340 794 L 339 795 L 333 795 L 332 796 L 320 796 L 319 797 L 297 797 L 296 796 L 283 796 L 282 795 L 277 795 L 276 794 L 271 794 L 270 793 L 265 793 L 264 792 L 260 792 L 259 791 L 255 791 L 254 790 L 252 790 L 251 789 L 248 789 L 247 788 L 245 788 L 244 787 L 242 787 L 241 786 L 239 786 L 238 785 L 236 785 L 235 784 L 234 784 L 233 783 L 231 783 L 230 782 L 229 782 L 228 781 L 227 781 L 226 780 L 225 780 L 224 779 L 223 779 L 221 777 L 220 777 L 218 775 L 217 775 L 214 772 L 213 772 L 209 768 L 209 767 L 207 765 L 207 764 L 206 763 L 206 762 L 205 761 L 205 755 L 204 754 L 204 751 Z M 230 709 L 231 708 L 233 708 L 234 709 L 236 709 L 237 710 L 239 710 L 240 711 L 243 711 L 244 712 L 247 712 L 248 713 L 251 713 L 252 714 L 255 714 L 256 715 L 259 715 L 260 716 L 264 716 L 265 717 L 270 717 L 271 718 L 279 718 L 280 719 L 304 719 L 305 720 L 310 720 L 311 719 L 334 719 L 335 718 L 336 719 L 337 718 L 344 718 L 345 717 L 350 717 L 351 716 L 355 716 L 356 715 L 360 715 L 361 714 L 364 714 L 365 713 L 368 713 L 369 712 L 372 712 L 373 711 L 375 711 L 376 710 L 378 710 L 379 709 L 381 709 L 382 708 L 384 708 L 385 709 L 385 734 L 384 735 L 383 735 L 382 736 L 380 736 L 379 737 L 377 737 L 376 738 L 374 738 L 373 739 L 371 739 L 370 740 L 367 740 L 366 741 L 364 741 L 363 742 L 360 742 L 359 743 L 355 743 L 354 744 L 350 744 L 349 745 L 344 745 L 343 746 L 337 746 L 336 747 L 330 747 L 329 748 L 311 748 L 310 749 L 303 749 L 302 748 L 286 748 L 285 747 L 278 747 L 277 746 L 272 746 L 271 745 L 266 745 L 265 744 L 261 744 L 260 743 L 256 743 L 255 742 L 252 742 L 251 741 L 249 741 L 248 740 L 246 740 L 245 739 L 242 739 L 241 738 L 239 738 L 238 737 L 236 737 L 235 736 L 234 736 L 233 735 L 232 735 L 230 733 Z M 205 639 L 206 638 L 212 644 L 213 644 L 215 646 L 216 646 L 218 648 L 219 648 L 221 650 L 222 650 L 223 651 L 224 651 L 225 652 L 226 652 L 227 653 L 228 653 L 229 654 L 230 654 L 231 655 L 233 655 L 234 656 L 235 656 L 236 657 L 238 657 L 239 658 L 241 658 L 242 659 L 244 659 L 245 660 L 248 660 L 249 661 L 252 661 L 253 662 L 257 662 L 258 663 L 261 663 L 262 664 L 266 664 L 267 665 L 273 665 L 274 666 L 342 666 L 343 665 L 348 665 L 349 664 L 353 664 L 354 663 L 358 663 L 359 662 L 362 662 L 363 661 L 366 661 L 367 660 L 370 660 L 371 659 L 373 659 L 374 658 L 376 658 L 377 657 L 379 657 L 380 656 L 381 656 L 382 655 L 384 655 L 385 654 L 386 654 L 387 653 L 388 653 L 389 652 L 390 652 L 391 651 L 392 651 L 393 650 L 394 650 L 396 648 L 397 648 L 398 647 L 399 647 L 401 645 L 402 645 L 409 638 L 410 639 L 410 654 L 411 655 L 411 657 L 410 658 L 410 662 L 409 663 L 409 665 L 407 667 L 407 668 L 402 673 L 401 673 L 398 676 L 397 676 L 395 678 L 394 678 L 392 680 L 391 680 L 390 681 L 389 681 L 388 682 L 387 682 L 386 683 L 385 683 L 384 684 L 383 684 L 382 685 L 380 685 L 379 686 L 378 686 L 377 687 L 375 687 L 374 688 L 372 688 L 371 689 L 368 689 L 367 690 L 365 690 L 364 691 L 361 691 L 360 692 L 357 692 L 356 693 L 352 693 L 351 694 L 347 694 L 346 695 L 340 695 L 339 696 L 332 696 L 331 697 L 321 697 L 320 698 L 297 698 L 296 697 L 283 697 L 282 696 L 276 696 L 275 695 L 270 695 L 269 694 L 264 694 L 263 693 L 260 693 L 259 692 L 255 692 L 254 691 L 252 691 L 251 690 L 248 690 L 247 689 L 245 689 L 244 688 L 242 688 L 241 687 L 239 687 L 238 686 L 236 686 L 235 685 L 234 685 L 233 684 L 231 684 L 230 683 L 229 683 L 228 682 L 227 682 L 226 681 L 225 681 L 224 680 L 223 680 L 221 678 L 220 678 L 218 676 L 217 676 L 207 666 L 207 665 L 206 664 L 206 663 L 205 662 Z M 307 567 L 308 566 L 309 567 L 310 566 L 311 567 L 329 567 L 330 568 L 337 568 L 338 569 L 344 569 L 345 570 L 349 570 L 350 571 L 354 571 L 355 572 L 359 572 L 360 573 L 363 573 L 364 574 L 366 574 L 367 575 L 370 575 L 371 576 L 373 576 L 374 577 L 376 577 L 377 578 L 379 578 L 380 579 L 381 579 L 382 580 L 383 580 L 384 581 L 386 581 L 387 582 L 388 582 L 389 583 L 390 583 L 391 584 L 392 584 L 394 586 L 395 586 L 396 587 L 397 587 L 400 590 L 401 590 L 408 597 L 408 598 L 409 599 L 409 600 L 410 601 L 410 606 L 411 607 L 411 612 L 410 613 L 410 616 L 409 617 L 409 618 L 408 619 L 408 620 L 400 628 L 399 628 L 396 631 L 395 631 L 394 632 L 393 632 L 391 634 L 390 634 L 389 635 L 388 635 L 387 636 L 386 636 L 385 637 L 383 637 L 382 638 L 381 638 L 380 639 L 378 639 L 377 640 L 375 640 L 374 641 L 371 641 L 370 642 L 368 642 L 367 643 L 364 643 L 363 644 L 360 644 L 359 645 L 356 645 L 355 646 L 351 646 L 350 647 L 346 647 L 345 648 L 339 648 L 338 649 L 330 649 L 329 650 L 312 650 L 311 651 L 303 651 L 302 650 L 287 650 L 286 649 L 277 649 L 276 648 L 271 648 L 270 647 L 265 647 L 264 646 L 261 646 L 260 645 L 257 645 L 256 644 L 252 644 L 251 643 L 249 643 L 248 642 L 245 642 L 244 641 L 242 641 L 241 640 L 239 640 L 238 639 L 236 639 L 235 638 L 233 638 L 232 637 L 231 637 L 230 636 L 229 636 L 228 635 L 227 635 L 226 634 L 225 634 L 224 633 L 223 633 L 222 632 L 221 632 L 219 630 L 218 630 L 215 627 L 214 627 L 208 621 L 208 620 L 206 618 L 206 616 L 205 615 L 205 602 L 206 601 L 206 599 L 208 597 L 208 596 L 214 590 L 215 590 L 218 587 L 219 587 L 221 585 L 222 585 L 223 584 L 224 584 L 225 583 L 226 583 L 227 582 L 228 582 L 229 581 L 231 581 L 232 580 L 233 580 L 234 579 L 235 579 L 236 578 L 238 578 L 239 577 L 241 577 L 242 576 L 244 576 L 245 575 L 248 575 L 249 574 L 251 574 L 252 573 L 255 573 L 256 572 L 260 572 L 261 571 L 265 571 L 266 570 L 270 570 L 271 569 L 277 569 L 278 568 L 285 568 L 286 567 Z M 467 539 L 468 538 L 512 538 L 513 539 L 513 570 L 531 570 L 532 571 L 532 602 L 563 602 L 564 603 L 564 730 L 563 731 L 532 731 L 532 762 L 531 763 L 436 763 L 435 762 L 435 731 L 410 731 L 409 730 L 409 699 L 410 698 L 435 698 L 435 667 L 436 666 L 499 666 L 499 635 L 436 635 L 435 634 L 435 584 L 410 584 L 409 583 L 409 571 L 410 570 L 467 570 Z M 102 539 L 103 538 L 147 538 L 148 539 L 148 570 L 205 570 L 206 571 L 206 583 L 205 584 L 180 584 L 180 634 L 179 635 L 116 635 L 116 666 L 179 666 L 180 667 L 180 698 L 205 698 L 206 699 L 206 730 L 205 731 L 180 731 L 180 762 L 179 763 L 84 763 L 83 762 L 83 731 L 52 731 L 51 730 L 51 603 L 52 602 L 83 602 L 83 571 L 84 570 L 102 570 Z M 276 347 L 276 371 L 292 371 L 293 372 L 293 410 L 292 411 L 231 411 L 230 410 L 230 386 L 206 386 L 206 410 L 218 410 L 219 411 L 219 424 L 231 424 L 232 425 L 232 442 L 291 442 L 291 425 L 292 424 L 323 424 L 324 425 L 324 442 L 383 442 L 384 441 L 384 425 L 385 424 L 396 424 L 396 411 L 397 410 L 409 410 L 409 386 L 385 386 L 385 410 L 384 411 L 323 411 L 322 410 L 322 373 L 324 371 L 339 371 L 339 347 Z M 392 283 L 392 304 L 390 306 L 389 306 L 388 305 L 372 305 L 372 327 L 409 327 L 409 309 L 410 308 L 411 308 L 412 307 L 415 307 L 416 308 L 456 308 L 457 307 L 466 307 L 468 309 L 468 327 L 499 327 L 499 305 L 487 305 L 486 304 L 486 283 Z M 180 249 L 180 282 L 179 283 L 148 283 L 148 346 L 211 346 L 211 249 Z M 513 78 L 513 103 L 512 104 L 487 104 L 487 128 L 486 129 L 463 129 L 462 130 L 462 154 L 486 154 L 487 155 L 487 179 L 489 179 L 490 180 L 491 179 L 501 179 L 502 180 L 507 180 L 508 179 L 509 180 L 512 180 L 513 181 L 513 205 L 533 205 L 533 79 L 532 78 Z M 83 78 L 82 79 L 82 203 L 83 204 L 83 205 L 102 205 L 102 181 L 104 179 L 105 180 L 106 179 L 107 179 L 108 180 L 115 180 L 116 179 L 122 179 L 123 180 L 124 179 L 128 179 L 128 155 L 129 154 L 153 154 L 153 130 L 150 130 L 149 129 L 129 129 L 128 128 L 128 104 L 103 104 L 102 103 L 102 78 Z M 462 53 L 462 77 L 486 77 L 486 53 Z M 129 53 L 129 77 L 153 77 L 153 53 Z M 283 2 L 283 45 L 288 45 L 288 27 L 289 26 L 326 26 L 327 27 L 327 45 L 332 45 L 332 2 Z M 404 1 L 403 2 L 385 2 L 385 23 L 384 24 L 359 24 L 359 45 L 358 46 L 334 46 L 334 73 L 358 73 L 358 46 L 359 45 L 380 45 L 381 46 L 381 103 L 380 104 L 235 104 L 234 103 L 234 46 L 235 45 L 256 45 L 257 46 L 257 73 L 281 73 L 281 46 L 257 46 L 256 45 L 256 24 L 231 24 L 230 23 L 230 2 L 206 2 L 206 103 L 205 104 L 180 104 L 179 103 L 179 78 L 155 78 L 154 79 L 154 81 L 155 82 L 155 103 L 179 103 L 180 104 L 180 128 L 205 128 L 206 129 L 206 154 L 230 154 L 231 155 L 231 185 L 232 186 L 256 186 L 256 129 L 257 128 L 281 128 L 283 130 L 283 205 L 332 205 L 332 130 L 334 128 L 358 128 L 359 129 L 359 185 L 360 186 L 384 186 L 384 155 L 385 154 L 409 154 L 409 129 L 410 128 L 435 128 L 435 104 L 436 103 L 460 103 L 460 81 L 461 80 L 461 79 L 460 78 L 436 78 L 436 103 L 435 104 L 410 104 L 409 103 L 409 2 L 408 1 L 407 2 L 405 2 Z M 27 1 L 27 51 L 25 53 L 1 53 L 1 231 L 26 231 L 27 232 L 27 282 L 26 283 L 1 283 L 1 442 L 26 442 L 27 443 L 27 474 L 51 474 L 52 475 L 52 506 L 83 506 L 84 507 L 84 538 L 83 539 L 52 539 L 52 602 L 51 603 L 20 603 L 20 730 L 51 730 L 52 731 L 52 762 L 83 762 L 84 763 L 84 794 L 179 794 L 179 780 L 180 779 L 197 779 L 199 781 L 199 782 L 202 785 L 202 786 L 207 791 L 208 791 L 211 794 L 212 794 L 214 796 L 215 796 L 217 798 L 218 798 L 219 799 L 220 799 L 221 800 L 222 800 L 223 801 L 224 801 L 225 802 L 226 802 L 227 803 L 228 803 L 229 804 L 230 804 L 231 805 L 232 805 L 233 806 L 235 806 L 236 807 L 237 807 L 238 808 L 240 808 L 241 809 L 243 809 L 244 810 L 246 810 L 247 811 L 249 811 L 250 812 L 252 812 L 253 813 L 256 813 L 257 814 L 261 814 L 262 815 L 266 815 L 267 816 L 271 816 L 272 817 L 278 817 L 279 818 L 287 818 L 288 819 L 305 819 L 306 820 L 311 820 L 312 819 L 328 819 L 329 818 L 337 818 L 338 817 L 343 817 L 344 816 L 349 816 L 350 815 L 354 815 L 355 814 L 358 814 L 359 813 L 362 813 L 363 812 L 365 812 L 366 811 L 368 811 L 369 810 L 371 810 L 372 809 L 374 809 L 375 808 L 377 808 L 378 807 L 379 807 L 380 806 L 382 806 L 383 805 L 384 805 L 385 804 L 387 804 L 388 803 L 389 803 L 390 802 L 391 802 L 392 801 L 393 801 L 395 799 L 396 799 L 397 798 L 398 798 L 400 796 L 401 796 L 403 794 L 404 794 L 408 790 L 409 790 L 414 785 L 414 784 L 417 781 L 417 780 L 418 779 L 435 779 L 436 780 L 436 794 L 531 794 L 531 763 L 532 762 L 563 762 L 563 731 L 564 730 L 595 730 L 595 603 L 564 603 L 563 602 L 563 539 L 532 539 L 531 538 L 531 507 L 532 506 L 563 506 L 563 475 L 564 474 L 588 474 L 588 443 L 589 442 L 614 442 L 614 283 L 589 283 L 588 282 L 588 232 L 589 231 L 614 231 L 614 53 L 590 53 L 588 51 L 588 2 L 513 2 L 513 26 L 512 27 L 488 27 L 488 31 L 487 32 L 487 33 L 488 34 L 487 35 L 487 50 L 488 51 L 488 52 L 532 52 L 533 51 L 533 27 L 534 26 L 563 26 L 564 27 L 564 205 L 563 206 L 543 206 L 542 207 L 542 256 L 563 256 L 564 257 L 564 307 L 565 307 L 566 308 L 573 308 L 574 307 L 576 307 L 577 308 L 584 308 L 585 307 L 587 307 L 588 308 L 589 308 L 590 309 L 590 326 L 589 327 L 532 327 L 532 346 L 531 347 L 513 347 L 513 367 L 562 367 L 564 369 L 564 384 L 588 384 L 590 386 L 590 410 L 589 411 L 564 411 L 563 410 L 563 387 L 513 387 L 513 410 L 563 410 L 564 411 L 564 442 L 563 443 L 532 443 L 532 474 L 531 475 L 500 475 L 500 506 L 499 507 L 436 507 L 436 538 L 435 539 L 180 539 L 179 538 L 179 507 L 116 507 L 115 506 L 115 475 L 84 475 L 83 474 L 83 443 L 52 443 L 51 442 L 51 411 L 52 410 L 102 410 L 102 387 L 52 387 L 52 410 L 51 411 L 26 411 L 25 410 L 25 385 L 26 384 L 51 384 L 51 369 L 52 368 L 102 368 L 102 347 L 84 347 L 83 346 L 83 327 L 26 327 L 25 326 L 25 309 L 26 308 L 39 308 L 40 307 L 42 307 L 43 308 L 47 308 L 48 307 L 51 307 L 51 257 L 52 256 L 73 256 L 73 207 L 72 206 L 52 206 L 51 205 L 51 27 L 52 26 L 81 26 L 82 27 L 82 51 L 83 52 L 122 52 L 123 51 L 124 51 L 125 52 L 127 52 L 128 51 L 128 27 L 103 27 L 102 26 L 102 2 L 36 2 L 35 1 L 34 2 L 33 1 L 32 2 L 31 2 L 30 1 Z"/>
</svg>
<svg x="615.2" y="167.0" width="1813.3" height="320" viewBox="0 0 3264 576">
<defs><linearGradient id="goldGrad" x1="0" y1="0" x2="0" y2="1">
<stop offset="0%" stop-color="#E8BE5A"/><stop offset="100%" stop-color="#D7A22E"/>
</linearGradient></defs>
<path fill="#080D26" fill-rule="evenodd" d="M 203 300 L 204 299 L 323 299 L 324 300 L 324 371 L 323 372 L 204 372 L 203 371 Z M 2555 156 L 2556 155 L 2579 155 L 2580 156 L 2580 203 L 2627 203 L 2628 204 L 2628 275 L 2627 276 L 2508 276 L 2507 275 L 2507 204 L 2508 203 L 2555 203 Z M 971 156 L 972 155 L 1091 155 L 1092 156 L 1092 227 L 1091 228 L 1044 228 L 1044 275 L 1043 276 L 972 276 L 971 275 Z M 203 156 L 204 155 L 323 155 L 324 156 L 324 227 L 323 228 L 204 228 L 203 227 Z M 2820 84 L 2820 155 L 2915 155 L 2916 156 L 2916 443 L 3035 443 L 3035 156 L 3036 155 L 3131 155 L 3131 84 Z M 2484 84 L 2484 131 L 2483 132 L 2436 132 L 2436 179 L 2435 180 L 2388 180 L 2388 443 L 2507 443 L 2507 348 L 2508 347 L 2627 347 L 2628 348 L 2628 443 L 2747 443 L 2747 180 L 2700 180 L 2699 179 L 2699 132 L 2652 132 L 2651 131 L 2651 84 Z M 2100 84 L 2100 131 L 2099 132 L 2052 132 L 2052 179 L 2051 180 L 2004 180 L 2004 347 L 2051 347 L 2052 348 L 2052 395 L 2099 395 L 2100 396 L 2100 443 L 2315 443 L 2315 396 L 2316 395 L 2363 395 L 2363 324 L 2244 324 L 2244 371 L 2243 372 L 2172 372 L 2171 371 L 2171 324 L 2124 324 L 2123 323 L 2123 204 L 2124 203 L 2171 203 L 2171 156 L 2172 155 L 2243 155 L 2244 156 L 2244 203 L 2363 203 L 2363 132 L 2316 132 L 2315 131 L 2315 84 Z M 1716 84 L 1716 131 L 1715 132 L 1668 132 L 1668 179 L 1667 180 L 1620 180 L 1620 347 L 1667 347 L 1668 348 L 1668 395 L 1715 395 L 1716 396 L 1716 443 L 1931 443 L 1931 396 L 1932 395 L 1979 395 L 1979 324 L 1860 324 L 1860 371 L 1859 372 L 1788 372 L 1787 371 L 1787 324 L 1740 324 L 1739 323 L 1739 204 L 1740 203 L 1787 203 L 1787 156 L 1788 155 L 1859 155 L 1860 156 L 1860 203 L 1979 203 L 1979 132 L 1932 132 L 1931 131 L 1931 84 Z M 1284 84 L 1284 155 L 1379 155 L 1380 156 L 1380 371 L 1379 372 L 1284 372 L 1284 443 L 1595 443 L 1595 372 L 1500 372 L 1499 371 L 1499 156 L 1500 155 L 1595 155 L 1595 84 Z M 852 84 L 852 443 L 971 443 L 971 348 L 972 347 L 995 347 L 996 348 L 996 395 L 1043 395 L 1044 396 L 1044 443 L 1211 443 L 1211 372 L 1164 372 L 1163 371 L 1163 324 L 1116 324 L 1115 323 L 1115 300 L 1116 299 L 1211 299 L 1211 132 L 1164 132 L 1163 131 L 1163 84 Z M 468 84 L 468 395 L 515 395 L 516 396 L 516 443 L 779 443 L 779 396 L 780 395 L 827 395 L 827 84 L 708 84 L 708 371 L 707 372 L 588 372 L 587 371 L 587 84 Z M 84 84 L 84 443 L 395 443 L 395 396 L 396 395 L 443 395 L 443 276 L 396 276 L 395 275 L 395 252 L 396 251 L 443 251 L 443 132 L 396 132 L 395 131 L 395 84 Z"/>
<path fill="url(#goldGrad)" fill-rule="evenodd" d="M 191 288 L 192 287 L 335 287 L 336 288 L 336 383 L 335 384 L 192 384 L 191 383 Z M 2543 144 L 2544 143 L 2591 143 L 2592 144 L 2592 191 L 2639 191 L 2640 192 L 2640 287 L 2639 288 L 2496 288 L 2495 287 L 2495 192 L 2496 191 L 2543 191 Z M 959 144 L 960 143 L 1103 143 L 1104 144 L 1104 239 L 1103 240 L 1056 240 L 1056 287 L 1055 288 L 960 288 L 959 287 Z M 191 144 L 192 143 L 335 143 L 336 144 L 336 239 L 335 240 L 192 240 L 191 239 Z M 2832 96 L 2832 143 L 2927 143 L 2928 144 L 2928 431 L 3023 431 L 3023 144 L 3024 143 L 3119 143 L 3119 96 Z M 2496 96 L 2496 143 L 2495 144 L 2448 144 L 2448 191 L 2447 192 L 2400 192 L 2400 431 L 2495 431 L 2495 336 L 2496 335 L 2639 335 L 2640 336 L 2640 431 L 2735 431 L 2735 192 L 2688 192 L 2687 191 L 2687 144 L 2640 144 L 2639 143 L 2639 96 Z M 2112 96 L 2112 143 L 2111 144 L 2064 144 L 2064 191 L 2063 192 L 2016 192 L 2016 335 L 2063 335 L 2064 336 L 2064 383 L 2111 383 L 2112 384 L 2112 431 L 2303 431 L 2303 384 L 2304 383 L 2351 383 L 2351 336 L 2256 336 L 2256 383 L 2255 384 L 2160 384 L 2159 383 L 2159 336 L 2112 336 L 2111 335 L 2111 192 L 2112 191 L 2159 191 L 2159 144 L 2160 143 L 2255 143 L 2256 144 L 2256 191 L 2351 191 L 2351 144 L 2304 144 L 2303 143 L 2303 96 Z M 1728 96 L 1728 143 L 1727 144 L 1680 144 L 1680 191 L 1679 192 L 1632 192 L 1632 335 L 1679 335 L 1680 336 L 1680 383 L 1727 383 L 1728 384 L 1728 431 L 1919 431 L 1919 384 L 1920 383 L 1967 383 L 1967 336 L 1872 336 L 1872 383 L 1871 384 L 1776 384 L 1775 383 L 1775 336 L 1728 336 L 1727 335 L 1727 192 L 1728 191 L 1775 191 L 1775 144 L 1776 143 L 1871 143 L 1872 144 L 1872 191 L 1967 191 L 1967 144 L 1920 144 L 1919 143 L 1919 96 Z M 1296 96 L 1296 143 L 1391 143 L 1392 144 L 1392 383 L 1391 384 L 1296 384 L 1296 431 L 1583 431 L 1583 384 L 1488 384 L 1487 383 L 1487 144 L 1488 143 L 1583 143 L 1583 96 Z M 864 96 L 864 431 L 959 431 L 959 336 L 960 335 L 1007 335 L 1008 336 L 1008 383 L 1055 383 L 1056 384 L 1056 431 L 1199 431 L 1199 384 L 1152 384 L 1151 383 L 1151 336 L 1104 336 L 1103 335 L 1103 288 L 1104 287 L 1199 287 L 1199 144 L 1152 144 L 1151 143 L 1151 96 Z M 480 96 L 480 383 L 527 383 L 528 384 L 528 431 L 767 431 L 767 384 L 768 383 L 815 383 L 815 96 L 720 96 L 720 383 L 719 384 L 576 384 L 575 383 L 575 96 Z M 96 96 L 96 431 L 383 431 L 383 384 L 384 383 L 431 383 L 431 288 L 384 288 L 383 287 L 383 240 L 384 239 L 431 239 L 431 144 L 384 144 L 383 143 L 383 96 Z"/>
</svg>
<svg x="1247.7" y="513.0" width="548.4" height="100" viewBox="0 0 2040 372">
<path fill="#080D26" fill-rule="evenodd" d="M 1571 192 L 1572 191 L 1595 191 L 1596 192 L 1596 215 L 1595 216 L 1572 216 L 1571 215 Z M 647 192 L 648 191 L 695 191 L 696 192 L 696 215 L 695 216 L 648 216 L 647 215 Z M 143 192 L 144 191 L 191 191 L 192 192 L 192 215 L 191 216 L 144 216 L 143 215 Z M 1655 156 L 1656 155 L 1703 155 L 1704 156 L 1704 167 L 1703 168 L 1656 168 L 1655 167 Z M 1319 156 L 1320 155 L 1367 155 L 1368 156 L 1368 167 L 1367 168 L 1320 168 L 1319 167 Z M 815 156 L 816 155 L 863 155 L 864 156 L 864 167 L 863 168 L 816 168 L 815 167 Z M 1487 132 L 1488 131 L 1535 131 L 1536 132 L 1536 143 L 1535 144 L 1512 144 L 1512 167 L 1511 168 L 1488 168 L 1487 167 Z M 1175 132 L 1176 131 L 1199 131 L 1200 132 L 1200 155 L 1259 155 L 1260 156 L 1260 191 L 1259 192 L 1200 192 L 1200 215 L 1199 216 L 1176 216 L 1175 215 L 1175 192 L 1152 192 L 1151 191 L 1151 156 L 1152 155 L 1175 155 Z M 1007 132 L 1008 131 L 1031 131 L 1032 132 L 1032 155 L 1091 155 L 1092 156 L 1092 191 L 1091 192 L 1032 192 L 1032 215 L 1031 216 L 1008 216 L 1007 215 L 1007 192 L 984 192 L 983 191 L 983 156 L 984 155 L 1007 155 Z M 647 132 L 648 131 L 695 131 L 696 132 L 696 155 L 695 156 L 648 156 L 647 155 Z M 311 132 L 312 131 L 335 131 L 336 132 L 336 155 L 359 155 L 360 156 L 360 203 L 359 204 L 336 204 L 336 215 L 335 216 L 312 216 L 311 215 Z M 227 132 L 228 131 L 251 131 L 252 132 L 252 167 L 251 168 L 228 168 L 227 167 Z M 1788 84 L 1788 131 L 1823 131 L 1824 132 L 1824 263 L 1895 263 L 1895 132 L 1896 131 L 1931 131 L 1931 84 Z M 588 84 L 588 263 L 731 263 L 731 240 L 732 239 L 755 239 L 756 240 L 756 263 L 815 263 L 815 216 L 816 215 L 863 215 L 864 216 L 864 263 L 923 263 L 923 228 L 924 227 L 947 227 L 948 228 L 948 239 L 971 239 L 972 240 L 972 263 L 1067 263 L 1067 240 L 1068 239 L 1091 239 L 1091 228 L 1092 227 L 1115 227 L 1116 228 L 1116 239 L 1139 239 L 1140 240 L 1140 263 L 1235 263 L 1235 240 L 1236 239 L 1259 239 L 1260 240 L 1260 263 L 1319 263 L 1319 216 L 1320 215 L 1367 215 L 1368 216 L 1368 263 L 1487 263 L 1487 240 L 1488 239 L 1511 239 L 1512 240 L 1512 263 L 1655 263 L 1655 216 L 1656 215 L 1703 215 L 1704 216 L 1704 263 L 1763 263 L 1763 132 L 1740 132 L 1739 131 L 1739 108 L 1728 108 L 1727 107 L 1727 84 L 1644 84 L 1644 95 L 1643 96 L 1632 96 L 1632 107 L 1631 108 L 1620 108 L 1620 131 L 1619 132 L 1596 132 L 1595 131 L 1595 108 L 1572 108 L 1571 107 L 1571 84 L 1428 84 L 1428 131 L 1427 132 L 1404 132 L 1403 131 L 1403 108 L 1392 108 L 1391 107 L 1391 84 L 1308 84 L 1308 95 L 1307 96 L 1296 96 L 1296 107 L 1295 108 L 1284 108 L 1284 131 L 1283 132 L 1260 132 L 1259 131 L 1259 108 L 1236 108 L 1235 107 L 1235 84 L 1140 84 L 1140 107 L 1139 108 L 1116 108 L 1116 131 L 1115 132 L 1092 132 L 1091 131 L 1091 108 L 1068 108 L 1067 107 L 1067 84 L 972 84 L 972 107 L 971 108 L 948 108 L 948 131 L 947 132 L 900 132 L 899 131 L 899 108 L 888 108 L 887 107 L 887 84 L 804 84 L 804 95 L 803 96 L 792 96 L 792 107 L 791 108 L 780 108 L 780 131 L 779 132 L 756 132 L 755 131 L 755 108 L 732 108 L 731 107 L 731 84 Z M 108 84 L 108 131 L 143 131 L 144 132 L 144 155 L 143 156 L 132 156 L 132 191 L 131 192 L 84 192 L 84 239 L 107 239 L 108 240 L 108 263 L 227 263 L 227 240 L 228 239 L 251 239 L 252 240 L 252 263 L 383 263 L 383 240 L 384 239 L 395 239 L 395 228 L 396 227 L 419 227 L 419 132 L 396 132 L 395 131 L 395 108 L 384 108 L 383 107 L 383 84 Z"/>
<path fill="#F4EBC4" fill-rule="evenodd" d="M 635 180 L 636 179 L 707 179 L 708 180 L 708 227 L 707 228 L 636 228 L 635 227 Z M 1667 120 L 1668 119 L 1691 119 L 1692 120 L 1692 143 L 1715 143 L 1716 144 L 1716 179 L 1715 180 L 1644 180 L 1643 179 L 1643 144 L 1644 143 L 1667 143 Z M 1475 120 L 1476 119 L 1547 119 L 1548 120 L 1548 155 L 1547 156 L 1524 156 L 1524 179 L 1523 180 L 1476 180 L 1475 179 Z M 1331 120 L 1332 119 L 1355 119 L 1356 120 L 1356 143 L 1379 143 L 1380 144 L 1380 179 L 1379 180 L 1308 180 L 1307 179 L 1307 144 L 1308 143 L 1331 143 Z M 827 120 L 828 119 L 851 119 L 852 120 L 852 143 L 875 143 L 876 144 L 876 179 L 875 180 L 804 180 L 803 179 L 803 144 L 804 143 L 827 143 Z M 635 120 L 636 119 L 707 119 L 708 120 L 708 167 L 707 168 L 636 168 L 635 167 Z M 299 120 L 300 119 L 347 119 L 348 120 L 348 143 L 371 143 L 372 144 L 372 215 L 371 216 L 348 216 L 348 227 L 347 228 L 300 228 L 299 227 Z M 1800 96 L 1800 119 L 1835 119 L 1836 120 L 1836 251 L 1883 251 L 1883 120 L 1884 119 L 1919 119 L 1919 96 Z M 1656 96 L 1656 107 L 1655 108 L 1644 108 L 1644 119 L 1643 120 L 1632 120 L 1632 143 L 1631 144 L 1608 144 L 1608 251 L 1643 251 L 1643 204 L 1644 203 L 1715 203 L 1716 204 L 1716 251 L 1751 251 L 1751 144 L 1728 144 L 1727 143 L 1727 120 L 1716 120 L 1715 119 L 1715 96 Z M 1440 96 L 1440 251 L 1475 251 L 1475 204 L 1476 203 L 1499 203 L 1500 204 L 1500 227 L 1523 227 L 1524 228 L 1524 251 L 1583 251 L 1583 228 L 1560 228 L 1559 227 L 1559 204 L 1548 204 L 1547 203 L 1547 180 L 1548 179 L 1583 179 L 1583 120 L 1560 120 L 1559 119 L 1559 96 Z M 1320 96 L 1320 107 L 1319 108 L 1308 108 L 1308 119 L 1307 120 L 1296 120 L 1296 143 L 1295 144 L 1272 144 L 1272 251 L 1307 251 L 1307 204 L 1308 203 L 1379 203 L 1380 204 L 1380 251 L 1415 251 L 1415 144 L 1392 144 L 1391 143 L 1391 120 L 1380 120 L 1379 119 L 1379 96 Z M 1152 96 L 1152 119 L 1151 120 L 1128 120 L 1128 143 L 1127 144 L 1104 144 L 1104 215 L 1127 215 L 1128 216 L 1128 227 L 1151 227 L 1152 228 L 1152 251 L 1223 251 L 1223 228 L 1224 227 L 1247 227 L 1247 204 L 1212 204 L 1212 227 L 1211 228 L 1164 228 L 1163 227 L 1163 204 L 1140 204 L 1139 203 L 1139 144 L 1140 143 L 1163 143 L 1163 120 L 1164 119 L 1211 119 L 1212 120 L 1212 143 L 1247 143 L 1247 120 L 1224 120 L 1223 119 L 1223 96 Z M 984 96 L 984 119 L 983 120 L 960 120 L 960 143 L 959 144 L 936 144 L 936 215 L 959 215 L 960 216 L 960 227 L 983 227 L 984 228 L 984 251 L 1055 251 L 1055 228 L 1056 227 L 1079 227 L 1079 204 L 1044 204 L 1044 227 L 1043 228 L 996 228 L 995 227 L 995 204 L 972 204 L 971 203 L 971 144 L 972 143 L 995 143 L 995 120 L 996 119 L 1043 119 L 1044 120 L 1044 143 L 1079 143 L 1079 120 L 1056 120 L 1055 119 L 1055 96 Z M 816 96 L 816 107 L 815 108 L 804 108 L 804 119 L 803 120 L 792 120 L 792 143 L 791 144 L 768 144 L 768 251 L 803 251 L 803 204 L 804 203 L 875 203 L 876 204 L 876 251 L 911 251 L 911 144 L 888 144 L 887 143 L 887 120 L 876 120 L 875 119 L 875 96 Z M 600 96 L 600 251 L 719 251 L 719 228 L 720 227 L 743 227 L 743 180 L 720 180 L 719 179 L 719 168 L 720 167 L 743 167 L 743 120 L 720 120 L 719 119 L 719 96 Z M 264 96 L 264 251 L 371 251 L 371 228 L 372 227 L 383 227 L 383 216 L 384 215 L 407 215 L 407 144 L 384 144 L 383 143 L 383 120 L 372 120 L 371 119 L 371 96 Z M 120 96 L 120 119 L 179 119 L 180 120 L 180 143 L 179 144 L 156 144 L 156 167 L 155 168 L 144 168 L 144 179 L 203 179 L 204 180 L 204 227 L 203 228 L 132 228 L 131 227 L 131 204 L 96 204 L 96 227 L 119 227 L 120 228 L 120 251 L 215 251 L 215 228 L 216 227 L 239 227 L 239 180 L 216 180 L 215 179 L 215 168 L 204 168 L 203 167 L 203 144 L 204 143 L 215 143 L 215 120 L 216 119 L 239 119 L 239 96 Z"/>
</svg>
</svg>